<mxfile host="app.diagrams.net" modified="2023-07-21T03:01:14.529Z" agent="Mozilla/5.0 (Macintosh; Intel Mac OS X 10_15_7) AppleWebKit/537.36 (KHTML, like Gecko) Chrome/114.0.0.0 Safari/537.36" version="21.6.2" etag="c4sSZ69iymtdNrz8OF_E" type="github">
  <diagram name="第 1 页" id="aMdtNRcVBirbjQxBbv0e">
    <mxGraphModel>
      <root>
        <mxCell id="0" />
        <mxCell id="1" parent="0" />
      </root>
    </mxGraphModel>
  </diagram>
</mxfile>
